<mxfile host="app.diagrams.net" agent="Mozilla/5.0 (X11; Ubuntu; Linux x86_64; rv:130.0) Gecko/20100101 Firefox/130.0" version="24.7.17">
  <diagram name="Page-1" id="-lkhmRugZQ7KXmKLj7Mv">
    <mxGraphModel dx="637" dy="331" grid="1" gridSize="10" guides="1" tooltips="1" connect="1" arrows="1" fold="1" page="1" pageScale="1" pageWidth="850" pageHeight="1100" math="0" shadow="0">
      <root>
        <mxCell id="0" />
        <mxCell id="1" parent="0" />
        <mxCell id="kx7U4rt3taCti0dy5ceR-12" style="edgeStyle=orthogonalEdgeStyle;rounded=0;orthogonalLoop=1;jettySize=auto;html=1;exitX=1;exitY=0.75;exitDx=0;exitDy=0;entryX=0;entryY=0.75;entryDx=0;entryDy=0;" edge="1" parent="1" source="kx7U4rt3taCti0dy5ceR-1" target="kx7U4rt3taCti0dy5ceR-2">
          <mxGeometry relative="1" as="geometry" />
        </mxCell>
        <mxCell id="kx7U4rt3taCti0dy5ceR-1" value="" style="rounded=1;whiteSpace=wrap;html=1;fillColor=#57e389;" vertex="1" parent="1">
          <mxGeometry x="200" y="380" width="180" height="240" as="geometry" />
        </mxCell>
        <mxCell id="kx7U4rt3taCti0dy5ceR-2" value="" style="rounded=1;whiteSpace=wrap;html=1;fillColor=#ed333b;" vertex="1" parent="1">
          <mxGeometry x="460" y="380" width="180" height="240" as="geometry" />
        </mxCell>
        <mxCell id="kx7U4rt3taCti0dy5ceR-3" value="Środ. zaufane" style="text;html=1;align=center;verticalAlign=middle;resizable=0;points=[];autosize=1;strokeColor=none;fillColor=none;" vertex="1" parent="1">
          <mxGeometry x="200" y="390" width="100" height="30" as="geometry" />
        </mxCell>
        <mxCell id="kx7U4rt3taCti0dy5ceR-4" value="Środ. niezaufane" style="text;html=1;align=center;verticalAlign=middle;resizable=0;points=[];autosize=1;strokeColor=none;fillColor=none;" vertex="1" parent="1">
          <mxGeometry x="465" y="390" width="110" height="30" as="geometry" />
        </mxCell>
        <mxCell id="kx7U4rt3taCti0dy5ceR-5" value="Oprogramowanie" style="rounded=1;whiteSpace=wrap;html=1;fillColor=#8ff0a4;" vertex="1" parent="1">
          <mxGeometry x="210" y="421" width="160" height="89" as="geometry" />
        </mxCell>
        <mxCell id="kx7U4rt3taCti0dy5ceR-8" value="Sprzęt" style="rounded=1;whiteSpace=wrap;html=1;fillColor=#8ff0a4;" vertex="1" parent="1">
          <mxGeometry x="210" y="520" width="160" height="90" as="geometry" />
        </mxCell>
        <mxCell id="kx7U4rt3taCti0dy5ceR-9" value="Oprogramowanie" style="rounded=1;whiteSpace=wrap;html=1;fillColor=#f66151;" vertex="1" parent="1">
          <mxGeometry x="470" y="421" width="160" height="89" as="geometry" />
        </mxCell>
        <mxCell id="kx7U4rt3taCti0dy5ceR-10" value="Sprzęt" style="rounded=1;whiteSpace=wrap;html=1;fillColor=#f66151;" vertex="1" parent="1">
          <mxGeometry x="470" y="520" width="160" height="90" as="geometry" />
        </mxCell>
        <mxCell id="kx7U4rt3taCti0dy5ceR-11" style="edgeStyle=orthogonalEdgeStyle;rounded=0;orthogonalLoop=1;jettySize=auto;html=1;exitX=0;exitY=0.25;exitDx=0;exitDy=0;entryX=1;entryY=0.25;entryDx=0;entryDy=0;" edge="1" parent="1" source="kx7U4rt3taCti0dy5ceR-2" target="kx7U4rt3taCti0dy5ceR-1">
          <mxGeometry relative="1" as="geometry" />
        </mxCell>
        <mxCell id="kx7U4rt3taCti0dy5ceR-13" value="&lt;div&gt;Specyficzne&lt;/div&gt;&lt;div&gt;API&lt;br&gt;&lt;/div&gt;" style="text;html=1;align=center;verticalAlign=middle;resizable=0;points=[];autosize=1;strokeColor=none;fillColor=none;" vertex="1" parent="1">
          <mxGeometry x="375" y="445.5" width="90" height="40" as="geometry" />
        </mxCell>
      </root>
    </mxGraphModel>
  </diagram>
</mxfile>
